<svg id="color" enable-background="new 0 0 24 24" height="512" viewBox="0 0 24 24" width="512" xmlns="http://www.w3.org/2000/svg"><path d="m6 8.34c-.51 0-.87 0-.95.01l-1.05.8-1.03.78c-1.86 1.41-2.97 3.64-2.97 5.97v7.6c0 .21.12.39.3.46.06.03.13.04.2.04h8c.28 0 .5-.22.5-.5v-1.54c1.08-.18 1.97-.94 2.33-1.96.11-.31.17-.65.17-1v-10.64s-3.48-.02-5.5-.02z" fill="#ffcc80"/><path d="m6 10.016-1.582 1.574c-.908.903-1.424 2.129-1.434 3.41h3.016z" fill="#ffa726"/><path d="m11.5 18v1c0 .35-.06.69-.17 1-.36 1.02-1.25 1.78-2.33 1.96v1.54c0 .28-.22.5-.5.5h-7.5v-6z" fill="#ffa726"/><path d="m20.5 19h-14c-.827 0-1.5-.673-1.5-1.5v-16c0-.827.673-1.5 1.5-1.5h14c.827 0 1.5.673 1.5 1.5v16c0 .827-.673 1.5-1.5 1.5z" fill="#eceff1"/><path d="m13.5 0h-7c-.827 0-1.5.673-1.5 1.5v16c0 .827.673 1.5 1.5 1.5h7z" fill="#cdd0d2"/><path d="m8.75 13c-.211 0-.421-.089-.569-.262-.27-.314-.233-.788.081-1.058l3.5-3c.256-.218.624-.241.904-.055l.988.659 2.816-2.814c.293-.293.768-.293 1.061 0s.293.768 0 1.061l-3.25 3.25c-.252.254-.648.292-.946.094l-1.027-.685-3.068 2.63c-.143.12-.317.18-.49.18z" fill="#4caf50"/><path d="m17.25 10c-.195 0-.387-.076-.53-.22l-2.5-2.5c-.215-.214-.278-.537-.163-.817.116-.28.389-.463.693-.463h2.5c.414 0 .75.336.75.75v2.5c0 .303-.183.577-.463.693-.093.038-.19.057-.287.057z" fill="#4caf50"/><path d="m15.47 8.53-1.72 1.72-1.185-.79c-.186-.124-.433-.109-.603.036l-3.782 3.242c.149.173.359.262.57.262.173 0 .347-.06.488-.181l3.068-2.63 1.027.685c.128.085.274.126.418.126.193 0 .385-.074.529-.22l1.72-1.719z" fill="#429846"/><path d="m17.78 6.22-2.31 2.31.53.531.72.72c.143.143.335.219.53.219.097 0 .194-.019.287-.057.28-.116.463-.39.463-.693v-2.5c0-.207-.084-.395-.22-.53z" fill="#429846"/><path d="m9.32 12.68-1.82 1.82c.24.49.36 1.01.36 1.53 0 .79-.27 1.56-.8 2.19l-1.56 1.87v3.91h-5c-.07 0-.14-.01-.2-.04-.18-.07-.3-.25-.3-.46v-6.19l8.63-8c.2-.18.5-.18.69.01.47.46.7 1.07.7 1.68s-.23 1.22-.7 1.68z" fill="#ffcc80"/></svg>