<svg id="color" enable-background="new 0 0 24 24" height="512" viewBox="0 0 24 24" width="512" xmlns="http://www.w3.org/2000/svg"><path d="m13.5 19.51c.02 1.19.59 2.3 1.5 3v.74c0 .41.34.75.75.75h7.5c.41 0 .75-.34.75-.75v-4.63c0-1.78-.69-3.45-1.93-4.73l-1.88-1.91c-.16-.16-.36-.24-.58-.23s-.42.12-.55.29l-1.16 1.5-2.06 2.68-2.18 2.82c-.11.14-.16.3-.16.47z" fill="#ffb74d"/><path d="m10.34 19.04-2.18-2.82-2.06-2.68-1.16-1.5c-.13-.17-.33-.28-.55-.29s-.42.07-.58.23l-1.88 1.91c-1.24 1.28-1.93 2.95-1.93 4.73v4.63c0 .41.34.75.75.75h7.5c.41 0 .75-.34.75-.75v-.74c.91-.7 1.48-1.81 1.5-3 0-.17-.05-.33-.16-.47z" fill="#ffb74d"/><path d="m19.25 20h-14.5c-.414 0-.75-.336-.75-.75v-17.5c0-.965.785-1.75 1.75-1.75h12.5c.965 0 1.75.785 1.75 1.75v17.5c0 .414-.336.75-.75.75z" fill="#eceff1"/><path d="m12 0h-6.25c-.965 0-1.75.785-1.75 1.75v17.5c0 .414.336.75.75.75h7.25z" fill="#cdd0d2"/><path d="m8.49 13.76c-.2-.39-.58-.66-1.02-.74-.45-.07-.91.07-1.23.38l-.14.14-3.31 3.2-2.79 2.6v3.91c0 .41.34.75.75.75h4.25v-1.217l1.52-1.233c.44-.54.68-1.19.68-1.88 0-.58-.17-1.13-.47-1.6l1.43-1.85.12-.15c.51-.66.6-1.57.21-2.31z" fill="#ffcc80"/><path d="m15.72 16.07.12.15 1.43 1.85c-.3.47-.47 1.02-.47 1.6 0 .69.24 1.34.68 1.88l1.52 1.233v1.217h4.25c.41 0 .75-.34.75-.75v-3.91l-2.79-2.6-3.31-3.2-.14-.14c-.32-.31-.78-.45-1.23-.38-.44.08-.82.35-1.02.74-.39.74-.3 1.65.21 2.31z" fill="#ffcc80"/><path d="m17 8c0 2.759-2.241 5-5 5-1.384 0-2.634-.559-3.533-1.467l3.533-3.533v-5c2.759 0 5 2.241 5 5z" fill="#2196f3"/><path d="m12 3v5l-3.533 3.533c-.908-.899-1.467-2.149-1.467-3.533 0-2.759 2.241-5 5-5z" fill="#ffc107"/><path d="m17 8h-5l-3.533 3.533c.899.908 2.149 1.467 3.533 1.467 2.759 0 5-2.241 5-5z" fill="#1d83d4"/><path d="m12 8h-5c0 1.384.559 2.634 1.467 3.533z" fill="#dea806"/></svg>