<svg id="color" enable-background="new 0 0 24 24" height="512" viewBox="0 0 24 24" width="512" xmlns="http://www.w3.org/2000/svg"><path d="m17.5 11c-3.59 0-6.5 2.91-6.5 6.5s2.91 6.5 6.5 6.5 6.5-2.91 6.5-6.5-2.91-6.5-6.5-6.5zm0 11.5c-2.761 0-5-2.239-5-5s2.239-5 5-5 5 2.239 5 5-2.239 5-5 5z" fill="#4caf50"/><path d="m13.25 0h-10.5c-1.52 0-2.75 1.23-2.75 2.75v15.5c0 1.52 1.23 2.75 2.75 2.75h7.56c-.52-1.06-.81-2.25-.81-3.5 0-.87.14-1.72.41-2.5.17-.53.39-1.03.67-1.5.6-1.04 1.43-1.93 2.42-2.6.89-.61 1.9-1.05 3-1.26v-6.89c0-1.52-1.23-2.75-2.75-2.75z" fill="#eceff1"/><path d="m8 0h-5.25c-1.52 0-2.75 1.23-2.75 2.75v15.5c0 1.52 1.23 2.75 2.75 2.75h5.25z" fill="#cdd0d2"/><path d="m3.75 13c-.192 0-.384-.073-.53-.22-.293-.293-.293-.768 0-1.061l2.5-2.5c.239-.24.608-.29.902-.121l1.273.728 2.305-2.127c.305-.28.778-.262 1.06.042.281.305.262.779-.042 1.06l-2.708 2.5c-.24.222-.596.263-.881.1l-1.252-.716-2.097 2.095c-.146.147-.338.22-.53.22z" fill="#4caf50"/><path d="m11.25 11c-.195 0-.387-.076-.53-.22l-2.5-2.5c-.215-.214-.279-.537-.163-.817s.39-.463.693-.463h2.5c.414 0 .75.336.75.75v2.5c0 .303-.183.577-.463.693-.093.038-.19.057-.287.057z" fill="#4caf50"/><path d="m9.388 9.449-1.388 1.301-1.418-.811c-.078-.044-.163-.065-.248-.065-.13 0-.258.05-.354.146l-2.76 2.76c.146.147.338.22.53.22s.384-.073.53-.22l2.095-2.095 1.252.716c.117.067.246.1.373.1.184 0 .367-.068.509-.199l1.42-1.312z" fill="#429846"/><path d="m11.773 7.213-2.385 2.236.541.541.79.79c.144.144.335.22.53.22.097 0 .194-.019.287-.057.281-.116.464-.39.464-.693v-2.5c0-.211-.087-.401-.227-.537z" fill="#429846"/><g fill="#4caf50"><path d="m16.5 11.08v12.84c-.52-.08-1.03-.22-1.5-.42v-12c.47-.2.98-.34 1.5-.42z"/><path d="m20 11.5v12c-.47.2-.98.34-1.5.42v-12.84c.52.08 1.03.22 1.5.42z"/><path d="m23.92 16.5h-12.84c.08-.52.22-1.03.42-1.5h12c.2.47.34.98.42 1.5z"/><path d="m23.92 18.5c-.08.52-.22 1.03-.42 1.5h-12c-.2-.47-.34-.98-.42-1.5z"/></g><path d="m12.6 16.5h-1.52c-.05.32-.08.66-.08 1s.03.68.08 1c.08.52.22 1.03.42 1.5.66 1.57 1.93 2.84 3.5 3.5.47.2.98.34 1.5.42.32.05.66.08 1 .08v-1.5c-.34 0-.68-.03-1-.1v1.52c-.52-.08-1.03-.22-1.5-.42v-1.67c-.76-.44-1.39-1.07-1.83-1.83h-1.67c-.2-.47-.34-.98-.42-1.5h1.52c-.069-.32-.1-.66-.1-1s.03-.68.1-1zm2.4-5c-1.57.66-2.84 1.93-3.5 3.5h1.67c.44-.76 1.07-1.39 1.83-1.83zm2.5-.5c-.34 0-.68.03-1 .08v1.52c.32-.07.66-.1 1-.1z" fill="#429846"/><path d="m16.5 20h-1.5v1.83 1.67c.47.2.98.34 1.5.42v-1.52zm0-3.5h-1.5v2h1.5zm0-5.42c-.52.08-1.03.22-1.5.42v1.67 1.83h1.5v-2.4z" fill="#429846"/><path d="m17.5 15h-1-1.5-1.83-1.67c-.2.47-.34.98-.42 1.5h1.52 2.4 1.5 1z" fill="#429846"/><path d="m17.5 18.5h-1-1.5-2.4-1.52c.08.52.22 1.03.42 1.5h1.67 1.83 1.5 1z" fill="#429846"/></svg>